<svg viewBox="0 0 291.79 101.63" xmlns="http://www.w3.org/2000/svg"><g fill="#fed318"><path d="m-36.91 46.47h86.17v6.76h-86.17z" transform="matrix(0 1 -1 0 56.02 43.68)"/><path d="m9.55 0h87.31v6.76h-87.31z"/><path d="m9.55 92.93h87.31v6.76h-87.31z"/><path d="m56.96 46.67h86.57v6.76h-86.57z" transform="matrix(0 1 -1 0 150.3 -50.2)"/><path d="m103.63 0h87.31v6.76h-87.31z"/><path d="m151.04 46.67h86.57v6.76h-86.57z" transform="matrix(0 1 -1 0 244.38 -144.28)"/><path d="m197.71 0h87.31v6.76h-87.31z"/><path d="m103.63 92.93h181.39v6.76h-181.39z"/><path d="m245.12 46.67h86.57v6.76h-86.57z" transform="matrix(0 1 -1 0 338.45 -238.36)"/></g><path d="m47.13 66.74a36 36 0 0 1 -2.28-12.67 36.54 36.54 0 0 1 2.28-12.77 35.52 35.52 0 0 1 6.55-11.07h4.68a51.52 51.52 0 0 0 -5 11.41 41.8 41.8 0 0 0 -1.94 12.27 42.46 42.46 0 0 0 1.94 12.38 51.41 51.41 0 0 0 5 11.47h-4.68a35.86 35.86 0 0 1 -6.55-11.02z" fill="#231f20"/><path d="m238.64 77.76h-4.64a51 51 0 0 0 5-11.47 42.12 42.12 0 0 0 1.94-12.38 41.47 41.47 0 0 0 -1.94-12.27 51.06 51.06 0 0 0 -5-11.41h4.68a35.52 35.52 0 0 1 6.55 11.07 36.32 36.32 0 0 1 2.29 12.77 36.13 36.13 0 0 1 -8.84 23.69z" fill="#231f20"/><g fill="#333132"><path d="m-39.7 48.4h86.17v6.76h-86.17z" transform="matrix(0 1 -1 0 55.16 48.4)"/><path d="m6.76 1.93h87.31v6.76h-87.31z"/><path d="m6.76 94.86h87.31v6.76h-87.31z"/><path d="m54.18 48.6h86.57v6.76h-86.57z" transform="matrix(0 1 -1 0 149.44 -45.48)"/><path d="m100.84 1.93h87.31v6.76h-87.31z"/></g><path d="m148.25 48.6h86.57v6.76h-86.57z" fill="#231f20" transform="matrix(0 1 -1 0 243.52 -139.56)"/><path d="m194.92 1.93h87.31v6.76h-87.31z" fill="#333132"/><path d="m100.84 94.86h181.39v6.76h-181.39z" fill="#333132"/><path d="m242.33 48.6h86.57v6.76h-86.57z" fill="#333132" transform="matrix(0 1 -1 0 337.6 -233.64)"/><path d="m141.55 58.15v18h-6.68v-44.3h7.57a34.6 34.6 0 0 1 8.41.77 11.32 11.32 0 0 1 5 2.93 12.59 12.59 0 0 1 3.86 9.45 12.12 12.12 0 0 1 -4.08 9.63q-4.06 3.57-11 3.56zm0-6.19h2.5q9.21 0 9.2-7.09 0-6.85-9.49-6.85h-2.21z" fill="#231f20"/></svg>