<svg xmlns="http://www.w3.org/2000/svg" viewBox="0 0 291.79 101.63"><defs><style>.cls-1{fill:#fed318;}.cls-2{fill:#231f20;}.cls-3{fill:#333132;}</style></defs><title>Asset 1</title><g id="Layer_2" data-name="Layer 2"><g id="Layer_1-2" data-name="Layer 1"><rect class="cls-1" x="-36.91" y="46.47" width="86.17" height="6.76" transform="translate(56.02 43.68) rotate(90)"/><rect class="cls-1" x="9.55" width="87.31" height="6.76"/><rect class="cls-1" x="9.55" y="92.93" width="87.31" height="6.76"/><rect class="cls-1" x="56.96" y="46.67" width="86.57" height="6.76" transform="translate(150.3 -50.2) rotate(90)"/><rect class="cls-1" x="103.63" width="87.31" height="6.76"/><rect class="cls-1" x="151.04" y="46.67" width="86.57" height="6.76" transform="translate(244.38 -144.28) rotate(90)"/><rect class="cls-1" x="197.71" width="87.31" height="6.76"/><rect class="cls-1" x="103.63" y="92.93" width="181.39" height="6.76"/><rect class="cls-1" x="245.12" y="46.67" width="86.57" height="6.76" transform="translate(338.45 -238.36) rotate(90)"/><path class="cls-2" d="M47.13,66.74a36,36,0,0,1-2.28-12.67A36.54,36.54,0,0,1,47.13,41.3a35.52,35.52,0,0,1,6.55-11.07h4.68a51.52,51.52,0,0,0-5,11.41,41.8,41.8,0,0,0-1.94,12.27,42.46,42.46,0,0,0,1.94,12.38,51.41,51.41,0,0,0,5,11.47H53.68A35.86,35.86,0,0,1,47.13,66.74Z"/><path class="cls-2" d="M238.64,77.76H234a51,51,0,0,0,5-11.47,42.12,42.12,0,0,0,1.94-12.38A41.47,41.47,0,0,0,239,41.64a51.06,51.06,0,0,0-5-11.41h4.68a35.52,35.52,0,0,1,6.55,11.07,36.32,36.32,0,0,1,2.29,12.77,36.13,36.13,0,0,1-8.84,23.69Z"/><rect class="cls-3" x="-39.7" y="48.4" width="86.17" height="6.76" transform="translate(55.16 48.4) rotate(90)"/><rect class="cls-3" x="6.76" y="1.93" width="87.31" height="6.76"/><rect class="cls-3" x="6.76" y="94.86" width="87.31" height="6.76"/><rect class="cls-3" x="54.18" y="48.6" width="86.57" height="6.76" transform="translate(149.44 -45.48) rotate(90)"/><rect class="cls-3" x="100.84" y="1.93" width="87.31" height="6.76"/><rect class="cls-2" x="148.25" y="48.6" width="86.57" height="6.76" transform="translate(243.52 -139.56) rotate(90)"/><rect class="cls-3" x="194.92" y="1.93" width="87.31" height="6.76"/><rect class="cls-3" x="100.84" y="94.86" width="181.39" height="6.76"/><rect class="cls-3" x="242.33" y="48.6" width="86.57" height="6.76" transform="translate(337.6 -233.64) rotate(90)"/><path class="cls-2" d="M141.55,58.15v18h-6.68V31.85h7.57a34.6,34.6,0,0,1,8.41.77,11.32,11.32,0,0,1,5,2.93A12.59,12.59,0,0,1,159.71,45a12.12,12.12,0,0,1-4.08,9.63q-4.06,3.57-11,3.56Zm0-6.19h2.5q9.21,0,9.2-7.09,0-6.85-9.49-6.85h-2.21Z"/></g></g></svg>